<svg width="16" height="15" viewBox="0 0 16 15" fill="none" xmlns="http://www.w3.org/2000/svg">
<path d="M7.17659 13.3138L7.17587 13.3132C5.10604 11.4363 3.42828 9.91184 2.26213 8.48514C1.10148 7.06516 0.5 5.80319 0.5 4.45957C0.5 2.26431 2.21155 0.55957 4.4 0.55957C5.64085 0.55957 6.84006 1.1398 7.62058 2.04921L8 2.49129L8.37942 2.04921C9.15994 1.1398 10.3592 0.55957 11.6 0.55957C13.7885 0.55957 15.5 2.26431 15.5 4.45957C15.5 5.80319 14.8985 7.06516 13.7379 8.48514C12.5717 9.91184 10.894 11.4363 8.82413 13.3132L8.82341 13.3138L8 14.0634L7.17659 13.3138Z" stroke="white"/>
</svg>
