<svg width="17" height="10" viewBox="0 0 17 10" fill="none" xmlns="http://www.w3.org/2000/svg">
<path d="M11.3357 7.59628H5.30656M2.49221 7.59628H1.91621C1.7302 7.59639 1.54599 7.55983 1.37412 7.48869C1.20225 7.41756 1.04608 7.31325 0.914557 7.18172C0.783028 7.05019 0.678715 6.89403 0.607583 6.72216C0.53645 6.55029 0.499892 6.36608 0.5 6.18007V3.90233L2.45692 1.67956C2.68174 1.42397 2.8721 1.16797 3.3398 1.16797H8.80072C9.12892 1.16797 9.48174 1.23771 9.75251 1.42397L12.7129 3.46048L15.5724 4.14151C16.2711 4.30766 16.5 4.63423 16.5 5.07361V6.17392C16.5 6.96161 15.8682 7.59628 15.0834 7.59628H14.1492M14.1718 7.39648C14.1722 7.58458 14.1356 7.77091 14.064 7.94485C13.9924 8.11878 13.8872 8.2769 13.7545 8.41017C13.6217 8.54344 13.464 8.64925 13.2904 8.72155C13.1167 8.79385 12.9306 8.83124 12.7425 8.83156C11.9531 8.83156 11.3131 8.1891 11.3131 7.39648C11.3131 6.60387 11.9531 5.96141 12.7425 5.96141C13.5318 5.96141 14.1718 6.60387 14.1718 7.39648ZM5.32831 7.39648C5.32874 7.58458 5.29211 7.77091 5.2205 7.94485C5.14889 8.11878 5.04371 8.2769 4.91098 8.41017C4.77824 8.54344 4.62055 8.64925 4.4469 8.72155C4.27326 8.79385 4.08707 8.83124 3.89897 8.83156C3.10964 8.83156 2.46964 8.1891 2.46964 7.39648C2.46964 6.60387 3.10964 5.96141 3.89897 5.96141C4.68831 5.96141 5.32831 6.60387 5.32831 7.39648Z" stroke="white" strokeWidth="0.5" strokeLinecap="round" strokeLinejoin="round"/>
</svg>
