<svg width="24" height="24" viewBox="0 0 24 24" fill="none" xmlns="http://www.w3.org/2000/svg">
<path d="M11.3333 18H12.6667V10.6667H11.3333V18ZM12 8.76933C12.2329 8.76933 12.428 8.69066 12.5853 8.53333C12.7427 8.376 12.8209 8.18089 12.82 7.948C12.8191 7.71511 12.7404 7.52044 12.584 7.364C12.4276 7.20755 12.2329 7.12889 12 7.128C11.7671 7.12711 11.5724 7.20578 11.416 7.364C11.2596 7.52222 11.1809 7.71733 11.18 7.94933C11.1791 8.18133 11.2578 8.376 11.416 8.53333C11.5742 8.69066 11.7689 8.76933 12 8.76933ZM12.004 24C10.3444 24 8.78444 23.6853 7.324 23.056C5.86356 22.4258 4.59289 21.5707 3.512 20.4907C2.43111 19.4107 1.57556 18.1413 0.945334 16.6827C0.315111 15.224 0 13.6644 0 12.004C0 10.3436 0.315111 8.78355 0.945334 7.324C1.57467 5.86355 2.42844 4.59289 3.50667 3.512C4.58489 2.43111 5.85467 1.57556 7.316 0.945333C8.77733 0.315111 10.3373 0 11.996 0C13.6547 0 15.2147 0.315111 16.676 0.945333C18.1364 1.57467 19.4071 2.42889 20.488 3.508C21.5689 4.58711 22.4244 5.85689 23.0547 7.31733C23.6849 8.77778 24 10.3373 24 11.996C24 13.6547 23.6853 15.2147 23.056 16.676C22.4267 18.1373 21.5716 19.408 20.4907 20.488C19.4098 21.568 18.1404 22.4236 16.6827 23.0547C15.2249 23.6858 13.6653 24.0009 12.004 24ZM12 22.6667C14.9778 22.6667 17.5 21.6333 19.5667 19.5667C21.6333 17.5 22.6667 14.9778 22.6667 12C22.6667 9.02222 21.6333 6.5 19.5667 4.43333C17.5 2.36667 14.9778 1.33333 12 1.33333C9.02222 1.33333 6.5 2.36667 4.43333 4.43333C2.36667 6.5 1.33333 9.02222 1.33333 12C1.33333 14.9778 2.36667 17.5 4.43333 19.5667C6.5 21.6333 9.02222 22.6667 12 22.6667Z" fill="white"/>
</svg>
