<svg width="48" height="48" viewBox="0 0 48 48" fill="none" xmlns="http://www.w3.org/2000/svg">
<rect x="0.5" y="0.5" width="47" height="47" rx="23.5" fill="#212121"/>
<rect x="0.5" y="0.5" width="47" height="47" rx="23.5" stroke="#9E9E9E"/>
<path d="M14.82 32.5H8.90518V15.0455H14.9393C16.6722 15.0455 18.1609 15.3949 19.4052 16.0938C20.6552 16.7869 21.6154 17.7841 22.2859 19.0852C22.9563 20.3864 23.2915 21.9432 23.2915 23.7557C23.2915 25.5739 22.9535 27.1364 22.2773 28.4432C21.6069 29.75 20.6381 30.7528 19.3711 31.4517C18.1097 32.1506 16.5927 32.5 14.82 32.5ZM12.0671 29.7642H14.6665C15.8825 29.7642 16.8967 29.5426 17.7092 29.0994C18.5217 28.6506 19.1325 27.983 19.5415 27.0966C19.9506 26.2045 20.1552 25.0909 20.1552 23.7557C20.1552 22.4205 19.9506 21.3125 19.5415 20.4318C19.1325 19.5455 18.5273 18.8835 17.7262 18.446C16.9308 18.0028 15.9421 17.7812 14.7603 17.7812H12.0671V29.7642Z" fill="#F44336"/>
<path d="M26.2958 32.5V15.0455H29.4577V23.0653H29.6708L36.4805 15.0455H40.3413L33.5913 22.8778L40.4009 32.5H36.5998L31.3924 25.017L29.4577 27.3011V32.5H26.2958Z" fill="#9E9E9E"/>
<rect x="4" y="20.2617" width="40" height="8" rx="4" fill="#212121"/>
<path d="M11.6722 21.9996H12.617L13.8823 25.088H13.9323L15.1976 21.9996H16.1424V26.2617H15.4015V23.3336H15.362L14.1841 26.2492H13.6305L12.4526 23.3273H12.413V26.2617H11.6722V21.9996ZM20.7917 24.1306C20.7917 24.5899 20.7057 24.9832 20.5336 25.3106C20.363 25.6367 20.1299 25.8864 19.8344 26.0598C19.5402 26.2333 19.2065 26.32 18.8333 26.32C18.4601 26.32 18.1257 26.2333 17.8302 26.0598C17.5361 25.885 17.303 25.6346 17.131 25.3086C16.9603 24.9811 16.875 24.5885 16.875 24.1306C16.875 23.6714 16.9603 23.2788 17.131 22.9527C17.303 22.6253 17.5361 22.3749 17.8302 22.2014C18.1257 22.028 18.4601 21.9413 18.8333 21.9413C19.2065 21.9413 19.5402 22.028 19.8344 22.2014C20.1299 22.3749 20.363 22.6253 20.5336 22.9527C20.7057 23.2788 20.7917 23.6714 20.7917 24.1306ZM20.0154 24.1306C20.0154 23.8074 19.9648 23.5347 19.8635 23.3128C19.7636 23.0894 19.6249 22.9208 19.4473 22.807C19.2697 22.6919 19.065 22.6343 18.8333 22.6343C18.6016 22.6343 18.397 22.6919 18.2194 22.807C18.0418 22.9208 17.9024 23.0894 17.8011 23.3128C17.7012 23.5347 17.6513 23.8074 17.6513 24.1306C17.6513 24.4539 17.7012 24.7272 17.8011 24.9506C17.9024 25.1726 18.0418 25.3412 18.2194 25.4563C18.397 25.5701 18.6016 25.627 18.8333 25.627C19.065 25.627 19.2697 25.5701 19.4473 25.4563C19.6249 25.3412 19.7636 25.1726 19.8635 24.9506C19.9648 24.7272 20.0154 24.4539 20.0154 24.1306ZM21.1455 22.6468V21.9996H24.546V22.6468H23.2287V26.2617H22.4628V22.6468H21.1455ZM28.8212 24.1306C28.8212 24.5899 28.7352 24.9832 28.5631 25.3106C28.3925 25.6367 28.1594 25.8864 27.8639 26.0598C27.5697 26.2333 27.2361 26.32 26.8629 26.32C26.4896 26.32 26.1553 26.2333 25.8598 26.0598C25.5656 25.885 25.3325 25.6346 25.1605 25.3086C24.9898 24.9811 24.9045 24.5885 24.9045 24.1306C24.9045 23.6714 24.9898 23.2788 25.1605 22.9527C25.3325 22.6253 25.5656 22.3749 25.8598 22.2014C26.1553 22.028 26.4896 21.9413 26.8629 21.9413C27.2361 21.9413 27.5697 22.028 27.8639 22.2014C28.1594 22.3749 28.3925 22.6253 28.5631 22.9527C28.7352 23.2788 28.8212 23.6714 28.8212 24.1306ZM28.0449 24.1306C28.0449 23.8074 27.9943 23.5347 27.893 23.3128C27.7931 23.0894 27.6544 22.9208 27.4768 22.807C27.2992 22.6919 27.0946 22.6343 26.8629 22.6343C26.6312 22.6343 26.4265 22.6919 26.2489 22.807C26.0713 22.9208 25.9319 23.0894 25.8306 23.3128C25.7307 23.5347 25.6808 23.8074 25.6808 24.1306C25.6808 24.4539 25.7307 24.7272 25.8306 24.9506C25.9319 25.1726 26.0713 25.3412 26.2489 25.4563C26.4265 25.5701 26.6312 25.627 26.8629 25.627C27.0946 25.627 27.2992 25.5701 27.4768 25.4563C27.6544 25.3412 27.7931 25.1726 27.893 24.9506C27.9943 24.7272 28.0449 24.4539 28.0449 24.1306ZM29.5512 26.2617V21.9996H31.1495C31.4769 21.9996 31.7516 22.0564 31.9736 22.1702C32.197 22.284 32.3655 22.4435 32.4793 22.6489C32.5945 22.8528 32.652 23.0908 32.652 23.3627C32.652 23.636 32.5938 23.8733 32.4772 24.0744C32.3621 24.2742 32.1921 24.4289 31.9674 24.5385C31.7426 24.6468 31.4665 24.7009 31.1391 24.7009H30.0007V24.0599H31.035C31.2265 24.0599 31.3832 24.0335 31.5053 23.9808C31.6274 23.9267 31.7176 23.8483 31.7759 23.7456C31.8355 23.6416 31.8654 23.5139 31.8654 23.3627C31.8654 23.2115 31.8355 23.0824 31.7759 22.9756C31.7162 22.8674 31.6254 22.7855 31.5033 22.73C31.3812 22.6732 31.2237 22.6447 31.0308 22.6447H30.3233V26.2617H29.5512ZM31.753 24.3304L32.8081 26.2617H31.9465L30.9101 24.3304H31.753ZM35.679 23.1712C35.6596 22.9895 35.5778 22.848 35.4335 22.7467C35.2906 22.6454 35.1047 22.5948 34.8757 22.5948C34.7148 22.5948 34.5767 22.619 34.4616 22.6676C34.3464 22.7162 34.2583 22.7821 34.1973 22.8653C34.1362 22.9486 34.105 23.0436 34.1036 23.1504C34.1036 23.2392 34.1237 23.3162 34.164 23.3814C34.2056 23.4466 34.2618 23.5021 34.3326 23.5479C34.4033 23.5923 34.4817 23.6298 34.5677 23.6603C34.6537 23.6908 34.7405 23.7165 34.8279 23.7373L35.2274 23.8372C35.3884 23.8747 35.5431 23.9253 35.6915 23.9891C35.8414 24.0529 35.9753 24.1334 36.0932 24.2305C36.2125 24.3277 36.3069 24.4449 36.3762 24.5822C36.4456 24.7196 36.4803 24.8805 36.4803 25.0651C36.4803 25.3148 36.4165 25.5347 36.2888 25.7248C36.1612 25.9135 35.9766 26.0612 35.7352 26.1681C35.4952 26.2735 35.2045 26.3262 34.8632 26.3262C34.5317 26.3262 34.2438 26.2749 33.9996 26.1722C33.7568 26.0696 33.5667 25.9197 33.4293 25.7227C33.2934 25.5257 33.2198 25.2857 33.2087 25.0026H33.9684C33.9795 25.1511 34.0252 25.2746 34.1057 25.3731C34.1862 25.4716 34.2909 25.5451 34.42 25.5937C34.5504 25.6422 34.6961 25.6665 34.857 25.6665C35.0249 25.6665 35.1719 25.6415 35.2982 25.5916C35.4258 25.5403 35.5257 25.4695 35.5979 25.3793C35.67 25.2877 35.7068 25.1809 35.7082 25.0588C35.7068 24.9478 35.6742 24.8563 35.6104 24.7841C35.5465 24.7106 35.4571 24.6495 35.3419 24.601C35.2281 24.551 35.0949 24.5066 34.9423 24.4678L34.4574 24.3429C34.1064 24.2527 33.8289 24.1161 33.625 23.9329C33.4224 23.7484 33.3211 23.5035 33.3211 23.1983C33.3211 22.9472 33.3891 22.7273 33.5251 22.5386C33.6624 22.3499 33.849 22.2035 34.0849 22.0995C34.3208 21.994 34.5878 21.9413 34.8861 21.9413C35.1886 21.9413 35.4536 21.994 35.6811 22.0995C35.9101 22.2035 36.0897 22.3485 36.2201 22.5344C36.3506 22.7189 36.4178 22.9312 36.422 23.1712H35.679Z" fill="white"/>
</svg>
