<svg width="16" height="17" viewBox="0 0 16 17" fill="none" xmlns="http://www.w3.org/2000/svg">
<path d="M15.3105 16.5996L9.1949 10.4847C8.70659 10.9007 8.14503 11.2227 7.51022 11.4505C6.87542 11.6784 6.23736 11.7923 5.59605 11.7923C4.03215 11.7923 2.7085 11.251 1.6251 10.1684C0.5417 9.08575 0 7.76259 0 6.19888C0 4.63517 0.541048 3.31136 1.62315 2.22744C2.70524 1.14352 4.02824 0.600914 5.59214 0.599612C7.15604 0.59831 8.48034 1.13994 9.56504 2.22451C10.6497 3.30908 11.1921 4.63289 11.1921 6.19595C11.1921 6.87429 11.072 7.53083 10.8317 8.16556C10.5915 8.80028 10.2757 9.34322 9.88439 9.79436L16 15.9082L15.3105 16.5996ZM5.59702 10.8148C6.89267 10.8148 7.98649 10.3689 8.87847 9.477C9.77045 8.58513 10.2164 7.49112 10.2164 6.19497C10.2164 4.89883 9.77045 3.80514 8.87847 2.91392C7.98649 2.0227 6.89267 1.57677 5.59702 1.57611C4.30137 1.57546 3.20723 2.0214 2.31459 2.91392C1.42196 3.80645 0.975971 4.90013 0.976622 6.19497C0.977273 7.48981 1.42326 8.5835 2.31459 9.47602C3.20592 10.3685 4.29974 10.8145 5.59605 10.8138" fill="white"/>
</svg>
