<svg width="22" height="24" viewBox="0 0 22 24" fill="none" xmlns="http://www.w3.org/2000/svg">
<path d="M11.5568 5.31913C13.8886 5.31913 14.7533 6.43267 14.8319 8.07022H17.7271C17.6354 5.81695 16.2598 3.74708 13.5218 3.07896V0.209961H9.5917V3.03965C9.08079 3.14446 8.60917 3.31476 8.15065 3.51127L10.1288 5.48944C10.548 5.38463 11.0328 5.31913 11.5568 5.31913ZM2.34716 1.4152L0.5 3.26236L5.00655 7.76891C5.00655 10.4938 7.05022 11.9873 10.1288 12.8912L14.7271 17.4894C14.2817 18.1314 13.3515 18.6816 11.5568 18.6816C8.85808 18.6816 7.79694 17.4763 7.65284 15.9305H4.77074C4.92795 18.7995 7.07642 20.4108 9.5917 20.948V23.7907H13.5218V20.9742C14.7795 20.7383 15.9192 20.2536 16.7445 19.5069L19.6528 22.4152L21.5 20.568L2.34716 1.4152Z" fill="#F44336"/>
</svg>
