<svg width="24" height="18" viewBox="0 0 24 18" fill="none" xmlns="http://www.w3.org/2000/svg">
<path d="M0 4.14637H10.5169L11.3258 5.76435H0.808989L0 4.14637ZM1.07865 7.38233H11.5955L12.4045 9.00031H1.88764L1.07865 7.38233ZM18.6067 16.0115C19.502 16.0115 20.2247 15.2888 20.2247 14.3936C20.2247 13.4983 19.502 12.7756 18.6067 12.7756C17.7115 12.7756 16.9888 13.4983 16.9888 14.3936C16.9888 15.2888 17.7115 16.0115 18.6067 16.0115ZM20.2247 6.30368H17.5281V9.00031H22.3389L20.2247 6.30368ZM7.82022 16.0115C8.71551 16.0115 9.4382 15.2888 9.4382 14.3936C9.4382 13.4983 8.71551 12.7756 7.82022 12.7756C6.92494 12.7756 6.20225 13.4983 6.20225 14.3936C6.20225 15.2888 6.92494 16.0115 7.82022 16.0115ZM20.764 4.6857L24 9.00031V14.3936H21.8427C21.8427 16.1841 20.3973 17.6295 18.6067 17.6295C16.8162 17.6295 15.3708 16.1841 15.3708 14.3936H11.0562C11.0562 16.1841 9.6 17.6295 7.82022 17.6295C6.02966 17.6295 4.58427 16.1841 4.58427 14.3936H2.42697V10.6183H4.58427V12.2363H5.40405C5.9973 11.5783 6.86022 11.1576 7.82022 11.1576C8.78022 11.1576 9.64315 11.5783 10.2364 12.2363H15.3708V2.5284H2.42697C2.42697 1.33109 3.38697 0.371094 4.58427 0.371094H17.5281V4.6857H20.764Z" fill="#F44336"/>
</svg>
