<svg width="24" height="24" viewBox="0 0 24 24" fill="none" xmlns="http://www.w3.org/2000/svg">
<path d="M23.5 17.8974L17.6026 23.7948L13.4744 19.6666L15.2436 17.8974L17.6026 20.2564L21.7308 16.1282L23.5 17.8974ZM11.2215 21.4358H2.85897V2.56405H11.1154V8.46149H17.0128V13.2856C17.4021 13.2266 17.7913 13.1794 18.1923 13.1794C18.5933 13.1794 18.9826 13.2266 19.3718 13.2856V7.282L12.2949 0.205078H2.85897C2.23334 0.205078 1.63332 0.453612 1.19093 0.896006C0.748534 1.3384 0.5 1.93841 0.5 2.56405V21.4358C0.5 22.7451 1.54974 23.7948 2.85897 23.7948H12.0708C11.6579 23.0753 11.3631 22.2851 11.2215 21.4358Z" fill="#b30d00"/>
</svg>
