<svg width="24" height="25" viewBox="0 0 24 25" fill="none" xmlns="http://www.w3.org/2000/svg">
<path d="M5.61575 3.07541C4.83094 3.16236 4.09829 3.51114 3.53598 4.06549C2.97368 4.61985 2.61451 5.34746 2.5164 6.13096C2.01373 10.4287 2.01373 14.7705 2.5164 19.0683C2.61421 19.852 2.97325 20.58 3.53558 21.1346C4.09792 21.6892 4.83073 22.0382 5.61575 22.1252C9.82313 22.5958 14.1761 22.5958 18.3835 22.1252C19.1682 22.0379 19.9007 21.6888 20.4628 21.1342C21.0248 20.5796 21.3837 19.8518 21.4814 19.0683C21.8432 15.9802 21.945 12.8695 21.7867 9.76878C21.7847 9.72912 21.7911 9.6895 21.8055 9.65248C21.8199 9.61547 21.8419 9.5819 21.8701 9.55396L23.3371 8.08413C23.3748 8.04557 23.4229 8.01876 23.4756 8.00691C23.5282 7.99507 23.5832 7.9987 23.6338 8.01737C23.6844 8.03604 23.7286 8.06895 23.761 8.11214C23.7933 8.15533 23.8125 8.20695 23.8162 8.26079C24.0924 11.9446 24.0157 15.6464 23.5872 19.3156C23.2834 21.9104 21.1987 23.9441 18.6181 24.2339C14.2192 24.7215 9.77998 24.7215 5.38115 24.2339C2.79906 23.9441 0.714445 21.9104 0.412 19.3156C-0.108687 14.8534 -0.108687 10.3458 0.412 5.88363C0.714445 3.28741 2.80047 1.25509 5.38115 0.965361C9.77998 0.477692 14.2192 0.477692 18.6181 0.965361C19.5071 1.06579 20.3596 1.37579 21.1055 1.86987C21.1388 1.89231 21.1666 1.92192 21.1869 1.95653C21.2073 1.99114 21.2196 2.02987 21.223 2.06987C21.2264 2.10987 21.2207 2.15012 21.2065 2.18766C21.1923 2.2252 21.1698 2.25908 21.1408 2.28679L20.0059 3.42167C19.96 3.46665 19.9008 3.49551 19.837 3.50392C19.7733 3.51233 19.7086 3.49984 19.6526 3.46831C19.2584 3.25728 18.8277 3.123 18.3835 3.07258C14.1406 2.60228 9.85866 2.60228 5.61575 3.07258" fill="#b30d00"/>
<path d="M23.4298 5.63722C23.5339 5.54018 23.6174 5.42315 23.6754 5.29313C23.7333 5.16311 23.7645 5.02275 23.767 4.88043C23.7695 4.73811 23.7433 4.59673 23.69 4.46475C23.6367 4.33276 23.5573 4.21287 23.4567 4.11222C23.356 4.01156 23.2361 3.93221 23.1041 3.8789C22.9722 3.82559 22.8308 3.79941 22.6885 3.80192C22.5461 3.80443 22.4058 3.83559 22.2758 3.89352C22.1457 3.95145 22.0287 4.03498 21.9317 4.13912L9.96106 16.1097L6.47022 12.6189C6.37318 12.5148 6.25616 12.4312 6.12614 12.3733C5.99612 12.3154 5.85576 12.2842 5.71344 12.2817C5.57111 12.2792 5.42974 12.3054 5.29776 12.3587C5.16577 12.412 5.04588 12.4913 4.94522 12.592C4.84457 12.6926 4.76522 12.8125 4.71191 12.9445C4.6586 13.0765 4.63242 13.2179 4.63493 13.3602C4.63744 13.5025 4.66859 13.6429 4.72653 13.7729C4.78446 13.9029 4.86799 14.0199 4.97213 14.117L9.21202 18.3569C9.41076 18.5554 9.68017 18.6669 9.96106 18.6669C10.242 18.6669 10.5114 18.5554 10.7101 18.3569L23.4298 5.63722Z" fill="#b30d00"/>
</svg>
