<svg width="22" height="22" viewBox="0 0 22 22" fill="none" xmlns="http://www.w3.org/2000/svg">
<path d="M11.5 1.01201C11.3335 1.00384 11.1667 0.999836 11 1.00001C5.477 1.00001 1 5.47701 1 11C1 16.523 5.477 21 11 21C16.523 21 21 16.523 21 11C21 10.137 20.89 9.29901 20.685 8.50001" stroke="white" stroke-width="1.5" stroke-linecap="round" stroke-linejoin="round"/>
<path d="M7 14.0001C7.46574 14.6211 8.06966 15.1251 8.76393 15.4722C9.45821 15.8194 10.2238 16.0001 11 16.0001C11.7762 16.0001 12.5418 15.8194 13.2361 15.4722C13.9303 15.1251 14.5343 14.6211 15 14.0001M9 8.50011H7.707C7.254 8.50011 6.82 8.68011 6.5 9.00011M13 8.50011H14.293C14.746 8.50011 15.18 8.68011 15.5 9.00011M14.888 1.33111C15.827 0.783114 16.646 1.00411 17.138 1.35611C17.34 1.50011 17.441 1.57211 17.5 1.57211C17.56 1.57211 17.66 1.50011 17.862 1.35611C18.354 1.00411 19.173 0.783114 20.112 1.33111C21.344 2.05111 21.622 4.42511 18.782 6.42811C18.24 6.80911 17.969 7.00011 17.5 7.00011C17.031 7.00011 16.76 6.81011 16.219 6.42811C13.378 4.42511 13.656 2.05111 14.889 1.33111" stroke="white" stroke-width="1.5" stroke-linecap="round" stroke-linejoin="round"/>
</svg>
