<svg width="18" height="16" viewBox="0 0 18 16" fill="none" xmlns="http://www.w3.org/2000/svg">
<path d="M2.35156 8.00702V0.599609M15.3145 15.4144V12.6366M2.35156 15.4144V11.7107M15.3145 8.93294V0.599609M8.83304 3.37739V0.599609M8.83304 15.4144V7.08109" stroke="#F44336" stroke-linecap="round"/>
<path d="M2.35185 11.7096C3.3746 11.7096 4.2037 10.8805 4.2037 9.85771C4.2037 8.83496 3.3746 8.00586 2.35185 8.00586C1.3291 8.00586 0.5 8.83496 0.5 9.85771C0.5 10.8805 1.3291 11.7096 2.35185 11.7096Z" stroke="#F44336" stroke-linecap="round"/>
<path d="M8.83427 7.08066C9.85702 7.08066 10.6861 6.25155 10.6861 5.22881C10.6861 4.20606 9.85702 3.37695 8.83427 3.37695C7.81152 3.37695 6.98242 4.20606 6.98242 5.22881C6.98242 6.25155 7.81152 7.08066 8.83427 7.08066Z" stroke="#F44336" stroke-linecap="round"/>
<path d="M15.3147 12.6373C16.3375 12.6373 17.1666 11.8082 17.1666 10.7854C17.1666 9.7627 16.3375 8.93359 15.3147 8.93359C14.292 8.93359 13.4629 9.7627 13.4629 10.7854C13.4629 11.8082 14.292 12.6373 15.3147 12.6373Z" stroke="#F44336" stroke-linecap="round"/>
</svg>
