<svg width="24" height="24" viewBox="0 0 24 24" fill="none" xmlns="http://www.w3.org/2000/svg">
<path d="M21.6 12C21.6 14.5461 20.5886 16.9879 18.7882 18.7882C16.9879 20.5886 14.5461 21.6 12 21.6C9.45392 21.6 7.01212 20.5886 5.21178 18.7882C3.41143 16.9879 2.4 14.5461 2.4 12C2.4 9.45392 3.41143 7.01212 5.21178 5.21178C7.01212 3.41143 9.45392 2.4 12 2.4C14.5461 2.4 16.9879 3.41143 18.7882 5.21178C20.5886 7.01212 21.6 9.45392 21.6 12ZM12 24C18.6276 24 24 18.6276 24 12C24 5.3724 18.6276 0 12 0C5.3724 0 0 5.3724 0 12C0 18.6276 5.3724 24 12 24ZM12.4296 8.8584C11.2632 9.344 8.9308 10.3492 5.4324 11.874C4.8636 12.0996 4.566 12.3204 4.5396 12.5364C4.494 12.9012 4.9512 13.0452 5.574 13.2408L5.8356 13.3248C6.4476 13.524 7.2732 13.7568 7.7016 13.7664C8.0904 13.7744 8.524 13.6144 9.0024 13.2864C12.2712 11.0784 13.9584 9.9628 14.064 9.9396C14.1396 9.9228 14.2428 9.9012 14.3124 9.9636C14.3832 10.026 14.376 10.1436 14.3688 10.176C14.3232 10.3692 12.528 12.0384 11.5992 12.9012C11.324 13.1604 11.0508 13.4216 10.7796 13.6848C10.2108 14.2332 9.7836 14.6448 10.8036 15.3168C11.8368 15.9984 12.8796 16.6776 13.8876 17.3964C14.3844 17.7516 14.8308 18.0684 15.3828 18.0192C15.7032 17.9892 16.0344 17.688 16.2024 16.788C16.6008 14.664 17.382 10.0584 17.562 8.16C17.5725 8.00253 17.5656 7.84438 17.5416 7.6884C17.5274 7.56286 17.4666 7.44723 17.3712 7.3644C17.2272 7.2468 17.0052 7.2228 16.9068 7.224C16.4556 7.2324 15.7632 7.4724 12.4308 8.8584" fill="#F44336"/>
</svg>
