<svg width="18" height="18" viewBox="0 0 18 18" fill="none" xmlns="http://www.w3.org/2000/svg">
<path d="M10.041 0.0601567C10.1768 0.117343 10.2928 0.213287 10.3745 0.336003C10.4561 0.45872 10.4998 0.602769 10.5 0.750157V17.2502C10.5 17.3978 10.4564 17.5422 10.3746 17.6652C10.2928 17.7882 10.1766 17.8843 10.0404 17.9415C9.90426 17.9987 9.75424 18.0144 9.60918 17.9867C9.46412 17.959 9.33047 17.889 9.225 17.7857L4.8345 13.4732H2.25C1.65326 13.4732 1.08097 13.2361 0.65901 12.8141C0.237053 12.3922 0 11.8199 0 11.2232V6.73816C0 6.14142 0.237053 5.56912 0.65901 5.14717C1.08097 4.72521 1.65326 4.48816 2.25 4.48816H4.836L9.2265 0.213157C9.33204 0.11019 9.4656 0.040619 9.61046 0.0131397C9.75533 -0.0143396 9.90508 0.0029925 10.041 0.0601567ZM9 2.52616L5.6655 5.77666C5.52508 5.91357 5.33662 5.99003 5.1405 5.98966H2.25C2.05109 5.98966 1.86032 6.06867 1.71967 6.20933C1.57902 6.34998 1.5 6.54074 1.5 6.73966V11.2232C1.5 11.4221 1.57902 11.6128 1.71967 11.7535C1.86032 11.8941 2.05109 11.9732 2.25 11.9732H5.142C5.33833 11.9732 5.52682 12.0502 5.667 12.1877L9 15.4622V2.52616ZM12.1665 4.78216C12.2278 4.70499 12.3038 4.64066 12.39 4.59286C12.4762 4.54506 12.5709 4.51472 12.6689 4.50357C12.7668 4.49243 12.866 4.5007 12.9607 4.52791C13.0555 4.55512 13.1439 4.60074 13.221 4.66216L13.224 4.66366L13.227 4.66666L13.2345 4.67266L13.257 4.69216L13.326 4.75216C13.381 4.80216 13.452 4.87316 13.539 4.96516C13.7085 5.14966 13.929 5.41816 14.1465 5.77516C14.583 6.49516 15.006 7.56466 15.006 8.99716C15.006 10.4282 14.583 11.4992 14.1465 12.2192C13.9715 12.5092 13.7679 12.781 13.539 13.0307C13.4427 13.1333 13.3415 13.2315 13.236 13.3247L13.224 13.3352H13.2225C13.2225 13.3352 12.552 13.6997 12.168 13.2182C12.0445 13.0637 11.9871 12.8667 12.0081 12.67C12.0292 12.4734 12.1271 12.293 12.2805 12.1682L12.2835 12.1652L12.3105 12.1412C12.3385 12.1162 12.381 12.0737 12.438 12.0137C12.5986 11.8372 12.7413 11.6453 12.864 11.4407C13.179 10.9232 13.506 10.1177 13.506 8.99566C13.506 7.87366 13.179 7.07116 12.864 6.55516C12.7095 6.30073 12.5241 6.06644 12.312 5.85766L12.285 5.83366C12.1303 5.70966 12.0309 5.52942 12.0087 5.33237C11.9865 5.13531 12.0432 4.93749 12.1665 4.78216ZM14.7195 1.66216C14.6427 1.59861 14.554 1.55101 14.4586 1.52213C14.3633 1.49325 14.2631 1.48367 14.1639 1.49396C14.0648 1.50424 13.9687 1.53418 13.8813 1.58203C13.7938 1.62987 13.7168 1.69467 13.6547 1.77262C13.5926 1.85057 13.5467 1.94012 13.5196 2.03604C13.4925 2.13195 13.4848 2.2323 13.4969 2.33123C13.509 2.43015 13.5408 2.52567 13.5902 2.61219C13.6397 2.69872 13.7059 2.77452 13.785 2.83516L13.8015 2.85016L13.8795 2.91766C13.9515 2.98066 14.052 3.07816 14.181 3.21016C14.436 3.47566 14.781 3.87466 15.126 4.40116C15.816 5.45266 16.506 7.00066 16.506 9.00466C16.5119 10.6401 16.0315 12.2403 15.126 13.6022C14.781 14.1272 14.436 14.5232 14.181 14.7872C14.0603 14.9126 13.9342 15.0327 13.803 15.1472L13.7865 15.1622H13.785C13.6336 15.2874 13.5375 15.4671 13.5172 15.6626C13.4969 15.858 13.5541 16.0536 13.6766 16.2073C13.799 16.361 13.9769 16.4605 14.1719 16.4844C14.3669 16.5083 14.5636 16.4547 14.7195 16.3352L14.769 16.2947L14.8815 16.1972C14.976 16.1117 15.1065 15.9902 15.261 15.8297C15.677 15.3976 16.0517 14.9276 16.38 14.4257C17.4455 12.819 18.0109 10.9325 18.0045 9.00466C18.0085 7.07527 17.4434 5.18755 16.38 3.57766C16.0516 3.07526 15.6775 2.60426 15.2625 2.17066C15.1056 2.00782 14.9414 1.85216 14.7705 1.70416L14.736 1.67566L14.7255 1.66666L14.7225 1.66366L14.7195 1.66216Z" fill="#F44336"/>
</svg>
