<svg width="24" height="21" viewBox="0 0 24 21" fill="none" xmlns="http://www.w3.org/2000/svg">
<path fill-rule="evenodd" clip-rule="evenodd" d="M5.16864 12.7193C5.21966 12.735 5.27169 12.7473 5.32437 12.7559C5.65815 13.5433 5.99006 14.3315 6.32009 15.1205C6.91351 16.5402 7.51165 18.0024 7.6426 18.4229C7.80659 18.9402 7.97883 19.2922 8.16759 19.5331C8.26552 19.6559 8.37759 19.7646 8.50973 19.8473C8.57911 19.8894 8.65264 19.9242 8.72916 19.9512C9.10669 20.0929 9.45118 20.0339 9.66707 19.9618C9.79383 19.9187 9.91441 19.8591 10.0257 19.7847L10.0316 19.7823L13.3656 17.7012L17.2175 20.6563C17.2742 20.6996 17.3355 20.7362 17.4016 20.7662C17.8641 20.967 18.3124 21.0378 18.7347 20.9811C19.1547 20.9221 19.4886 20.7461 19.7375 20.5465C20.0231 20.3156 20.2509 20.0212 20.4029 19.6866L20.4135 19.6607L20.4171 19.6512L20.4194 19.6465V19.6441L20.4206 19.6429C20.4399 19.5917 20.4557 19.5392 20.4678 19.4859L23.9835 1.73978C23.9932 1.68278 23.9987 1.62514 24 1.56734C24 1.04765 23.8042 0.552768 23.3452 0.253949C22.9512 -0.00235082 22.5135 -0.014162 22.2363 0.00709786C21.939 0.0307199 21.6629 0.103948 21.4777 0.163003C21.3742 0.196462 21.2719 0.233492 21.1709 0.274027L21.158 0.279933L1.43941 8.02325L1.43705 8.02443C1.37019 8.04861 1.30445 8.0758 1.24003 8.10592C1.08361 8.17618 0.933607 8.25997 0.791724 8.35632C0.523918 8.53939 -0.0930975 9.04254 0.0119013 9.87403C0.0944847 10.5355 0.547513 10.9429 0.824757 11.139C0.975767 11.2465 1.1197 11.3232 1.22588 11.374C1.27307 11.3977 1.37453 11.4378 1.41818 11.4567L1.42998 11.4603L5.16864 12.7193ZM21.8481 1.90986H21.8458L21.8151 1.92285L2.07295 9.67679L2.04227 9.6886L2.03047 9.69214C1.99433 9.70614 1.95889 9.7219 1.9243 9.73939C1.95728 9.75794 1.99114 9.77488 2.02575 9.79018L5.73257 11.0398C5.79802 11.0641 5.86118 11.0941 5.92133 11.1295L18.1637 3.95434L18.1755 3.94844C18.2233 3.91995 18.2721 3.89316 18.3218 3.86812C18.4067 3.82442 18.5424 3.76064 18.6958 3.7134C18.802 3.68033 19.117 3.58702 19.4567 3.69686C19.6372 3.75324 19.7981 3.85955 19.9209 4.00354C20.0436 4.14753 20.1232 4.32332 20.1504 4.51064C20.1944 4.67452 20.1956 4.84695 20.154 5.01143C20.0714 5.33624 19.8449 5.58899 19.6384 5.78269C19.4615 5.94805 17.1656 8.1638 14.9017 10.3512L11.819 13.3276L11.2704 13.8591L18.1979 19.1764C18.2915 19.2155 18.393 19.2317 18.4941 19.2236C18.5449 19.2167 18.5928 19.1954 18.6321 19.1622C18.6798 19.1217 18.7209 19.0739 18.7536 19.0205L18.756 19.0193L22.1655 1.8071C22.0582 1.83354 21.953 1.86748 21.8505 1.90867L21.8481 1.90986ZM11.8661 16.5484L10.4835 15.4878L10.1484 17.6197L11.8661 16.5484ZM9.21522 13.3831L10.5896 12.0544L13.6724 9.07561L14.8203 7.96773L7.12822 12.476L7.16952 12.5729C7.65464 13.7202 8.13442 14.8698 8.60883 16.0217L8.9427 13.8957C8.97318 13.6986 9.0692 13.5188 9.21522 13.3831Z" fill="#b30d00"/>
</svg>
