<svg width="16" height="11" viewBox="0 0 16 11" fill="none" xmlns="http://www.w3.org/2000/svg">
<path d="M8 9.64629C11.0888 9.64629 13.7606 7.93201 15.1351 5.39919C13.7606 2.86637 11.0888 1.15208 8 1.15208C4.9112 1.15208 2.23938 2.86637 0.864865 5.39919C2.23938 7.93201 4.9112 9.64629 8 9.64629ZM8 0.379883C11.5212 0.379883 14.5637 2.42621 16 5.39919C14.5637 8.37216 11.5212 10.4185 8 10.4185C4.47876 10.4185 1.43629 8.37216 0 5.39919C1.43629 2.42621 4.47876 0.379883 8 0.379883ZM8 1.92428C9.9305 1.92428 11.4749 3.46869 11.4749 5.39919C11.4749 7.32969 9.9305 8.87409 8 8.87409C6.0695 8.87409 4.5251 7.32969 4.5251 5.39919C4.5251 3.46869 6.0695 1.92428 8 1.92428ZM8 2.69649C7.2832 2.69649 6.59576 2.98123 6.0889 3.48809C5.58205 3.99494 5.2973 4.68239 5.2973 5.39919C5.2973 6.11599 5.58205 6.80343 6.0889 7.31029C6.59576 7.81714 7.2832 8.10189 8 8.10189C8.7168 8.10189 9.40424 7.81714 9.9111 7.31029C10.418 6.80343 10.7027 6.11599 10.7027 5.39919C10.7027 4.68239 10.418 3.99494 9.9111 3.48809C9.40424 2.98123 8.7168 2.69649 8 2.69649Z" fill="white"/>
</svg>
