<svg width="16" height="12" viewBox="0 0 16 12" fill="none" xmlns="http://www.w3.org/2000/svg">
<path d="M8 4.21804C7.42135 4.21804 6.86639 4.44791 6.45722 4.85708C6.04805 5.26625 5.81818 5.8212 5.81818 6.39986C5.81818 6.97851 6.04805 7.53347 6.45722 7.94264C6.86639 8.35181 7.42135 8.58168 8 8.58168C8.57865 8.58168 9.13361 8.35181 9.54278 7.94264C9.95195 7.53347 10.1818 6.97851 10.1818 6.39986C10.1818 5.8212 9.95195 5.26625 9.54278 4.85708C9.13361 4.44791 8.57865 4.21804 8 4.21804ZM8 10.0362C7.03558 10.0362 6.11065 9.65311 5.4287 8.97116C4.74675 8.28921 4.36364 7.36428 4.36364 6.39986C4.36364 5.43543 4.74675 4.51051 5.4287 3.82856C6.11065 3.14661 7.03558 2.76349 8 2.76349C8.96442 2.76349 9.88935 3.14661 10.5713 3.82856C11.2532 4.51051 11.6364 5.43543 11.6364 6.39986C11.6364 7.36428 11.2532 8.28921 10.5713 8.97116C9.88935 9.65311 8.96442 10.0362 8 10.0362ZM8 0.945312C4.36364 0.945312 1.25818 3.20713 0 6.39986C1.25818 9.59259 4.36364 11.8544 8 11.8544C11.6364 11.8544 14.7418 9.59259 16 6.39986C14.7418 3.20713 11.6364 0.945312 8 0.945312Z" fill="#b30d00"/>
</svg>
